<svg width="53" height="10" viewBox="0 0 53 10" fill="none" xmlns="http://www.w3.org/2000/svg">
<g clip-path="url(#clip0_2_7)">
<path d="M0.315186 7.62432V1.60222C0.315186 0.994486 0.630349 0.662994 1.20815 0.662994H3.15166C4.51737 0.662994 5.46286 0.82874 5.98813 1.27073C6.56593 1.65747 6.82857 2.32045 6.82857 3.20443C6.82857 4.97239 6.04066 5.58012 3.09913 5.63537H1.83848V7.62432H0.315186ZM1.83848 4.75139H3.25671C3.99209 4.75139 4.51737 4.64089 4.83253 4.4199C5.09517 4.14366 5.25275 3.75692 5.25275 3.14918C5.25275 2.54145 5.09517 2.15471 4.83253 1.93371C4.56989 1.71272 4.04462 1.60222 3.25671 1.60222H2.10111C1.94353 1.60222 1.83848 1.71272 1.83848 1.87846V4.75139Z" fill="white"/>
<path d="M7.24878 6.02211C7.24878 4.75139 8.14174 4.25416 9.9802 4.25416H11.5035V4.08841C11.5035 3.64642 11.451 3.42543 11.1358 3.20443C10.7156 2.87294 9.77009 2.87294 7.72152 3.03869V2.15471C9.77009 1.98896 11.0833 1.98896 11.8187 2.26521C12.3439 2.43095 12.6591 2.5967 12.8167 2.98344C12.9742 3.31493 13.0268 3.64642 13.0268 4.25416V7.34808C12.6591 7.34808 12.1338 7.40333 11.451 7.56907C10.7681 7.67957 10.1903 7.79007 9.71756 7.79007C8.03669 7.73482 7.24878 7.12709 7.24878 6.02211ZM11.2409 6.74035C11.451 6.6851 11.5035 6.5746 11.5035 6.35361V5.02764H10.1903C9.13976 5.02764 8.71954 5.24863 8.71954 5.96686C8.71954 6.62985 9.08723 6.90609 9.9802 6.90609C10.5055 6.90609 10.9257 6.85084 11.2409 6.74035Z" fill="white"/>
<path d="M14.0773 7.62431V3.92265C14.0773 3.25967 14.2349 2.76243 14.6551 2.54143C15.0228 2.26519 15.6531 2.15469 16.5986 2.15469H17.439V2.92817H16.7036C16.2834 2.92817 16.0208 2.98342 15.8632 3.09392C15.7056 3.20442 15.6531 3.48066 15.6531 3.8674V7.56906H14.0773V7.62431Z" fill="white"/>
<path d="M17.6492 6.02211C17.6492 4.75139 18.5421 4.25416 20.3806 4.25416H21.9039V4.08841C21.9039 3.64642 21.8514 3.42543 21.5362 3.20443C21.116 2.87294 20.1705 2.87294 18.0694 3.03869V2.15471C20.118 1.98896 21.4311 1.98896 22.1665 2.26521C22.6918 2.43095 23.0069 2.5967 23.1645 2.98344C23.3221 3.31493 23.3746 3.64642 23.3746 4.25416V7.34808C23.007 7.34808 22.4817 7.40333 21.7988 7.56907C21.116 7.67957 20.5382 7.79007 20.0654 7.79007C18.4371 7.73482 17.6492 7.12709 17.6492 6.02211ZM21.6412 6.74035C21.8514 6.6851 21.9039 6.5746 21.9039 6.35361V5.02764H20.5907C19.5402 5.02764 19.1199 5.24863 19.1199 5.96686C19.1199 6.62985 19.4876 6.90609 20.3806 6.90609C20.9059 6.90609 21.3261 6.85084 21.6412 6.74035Z" fill="white"/>
<path d="M24.2151 4.91712C24.2151 2.98342 25.1081 2.09944 27.0516 2.09944C27.4718 2.09944 27.892 2.20994 28.2597 2.37568C28.6274 2.54143 28.89 2.76242 28.9951 3.03866V0.331482H30.5184V7.29281C30.1507 7.34806 29.7305 7.40331 29.2577 7.45855C28.3122 7.6243 27.7344 7.67955 27.1566 7.67955C25.2656 7.7348 24.2151 6.79557 24.2151 4.91712ZM28.785 6.68507C28.9951 6.62982 29.0476 6.57458 29.0476 6.40883V4.91712C29.0476 3.59115 28.5223 2.98342 27.3667 2.98342C26.2111 2.98342 25.6859 3.59115 25.6859 4.91712C25.6859 6.24308 26.2637 6.90607 27.4193 6.90607C27.8395 6.85082 28.3122 6.79557 28.785 6.68507Z" fill="white"/>
<path d="M31.5164 0.662983C31.5164 0.220994 31.8315 0 32.4093 0C32.9871 0 33.3023 0.220994 33.3023 0.662983C33.3023 1.10497 32.9871 1.38122 32.4093 1.38122C31.8315 1.38122 31.5164 1.16022 31.5164 0.662983ZM32.1467 7.62431C31.8315 7.62431 31.6739 7.45856 31.6739 7.12707V2.1547H33.1447V7.62431H32.1467Z" fill="white"/>
<path d="M34.7731 8.67403C35.4034 8.72928 35.8762 8.72928 36.2964 8.78453C37.0843 8.83978 37.7672 8.72928 38.1348 8.61878C38.7126 8.39779 38.8177 7.90055 38.8177 7.12707V6.51933C38.45 7.18232 37.8197 7.51381 36.8742 7.51381C35.0357 7.51381 34.0377 6.57458 34.0377 4.80663C34.0377 2.98342 34.9832 2.15469 36.9792 2.15469C37.3469 2.15469 37.9247 2.20994 38.7126 2.37569C39.448 2.48619 39.9733 2.59668 40.341 2.59668V7.07182C40.341 7.45856 40.341 7.79005 40.2885 8.0663C40.1834 8.56353 39.9733 9.11602 39.448 9.33701C38.6601 9.72375 37.2944 9.8895 34.7731 9.66851V8.67403ZM38.8702 3.37016C38.8702 3.20442 38.8177 3.14917 38.6076 3.09392C38.1348 2.98342 37.6621 2.92817 37.2419 2.92817C36.0863 2.92817 35.561 3.53591 35.561 4.75138C35.561 6.0221 36.0863 6.57458 37.2419 6.57458C38.345 6.57458 38.9228 6.0221 38.9228 4.75138V3.37016H38.8702Z" fill="white"/>
<path d="M41.4966 7.62432V2.43095C41.8117 2.43095 42.2845 2.3757 42.8623 2.2652C43.4401 2.15471 43.9128 2.09946 44.3331 2.09946C45.5937 2.09946 46.119 2.43095 46.3816 3.09393C46.6443 2.54145 47.3271 2.09946 48.4827 2.09946C49.4807 2.09946 50.1111 2.2652 50.4262 2.76244C50.7414 3.20443 50.8464 3.81216 50.8464 4.75139V7.62432H49.7959C49.4807 7.62432 49.3231 7.45857 49.3231 7.12708V4.80664C49.3231 4.08841 49.2181 3.59117 49.0605 3.31493C48.9029 3.03868 48.5878 2.92819 48.115 2.92819C47.6423 2.92819 47.3271 3.03868 47.117 3.31493C46.9594 3.59117 46.8544 4.08841 46.8544 4.75139V7.56907H45.8038C45.4887 7.56907 45.3311 7.40332 45.3311 7.07183V4.86189C45.3311 4.14366 45.226 3.64642 45.0684 3.37018C44.9109 3.09393 44.5957 2.98343 44.1755 2.98343C43.8078 2.98343 43.4401 3.03868 43.1775 3.14918C43.0199 3.20443 42.9673 3.31493 42.9673 3.48067V7.67957H41.4966V7.62432Z" fill="white"/>
<path d="M52.4747 0.883987C52.4222 0.77349 52.3697 0.662992 52.2646 0.607744C52.2121 0.552495 52.1071 0.441998 52.002 0.441998C51.8969 0.441998 51.7919 0.386749 51.6868 0.386749C51.5818 0.386749 51.4767 0.386749 51.3717 0.441998C51.2666 0.497247 51.1616 0.552495 51.109 0.607744C51.0565 0.662992 50.9515 0.77349 50.9515 0.883987C50.8989 0.994484 50.8989 1.10498 50.8989 1.27073C50.8989 1.38122 50.8989 1.49172 50.9515 1.60222C51.004 1.71272 51.0565 1.82321 51.109 1.87846C51.1616 1.93371 51.2666 2.04421 51.3717 2.04421C51.4767 2.09946 51.5818 2.09946 51.6868 2.09946C51.7919 2.09946 51.8969 2.09946 52.002 2.04421C52.1071 1.98896 52.2121 1.93371 52.2646 1.87846C52.3172 1.82321 52.4222 1.71272 52.4747 1.60222C52.5273 1.49172 52.5273 1.38122 52.5273 1.21548C52.5798 1.10498 52.5273 0.994484 52.4747 0.883987ZM52.3172 1.54697C52.2646 1.65747 52.2121 1.71272 52.1596 1.76796C52.1071 1.82321 52.0545 1.87846 51.9495 1.93371C51.8444 1.98896 51.7919 1.98896 51.6868 1.98896C51.5818 1.98896 51.4767 1.98896 51.4242 1.93371C51.3191 1.87846 51.2666 1.82321 51.2141 1.76796C51.1616 1.71272 51.109 1.60222 51.0565 1.54697C51.004 1.43647 51.004 1.38122 51.004 1.27073C51.004 1.16023 51.004 1.04973 51.0565 0.994484C51.109 0.883987 51.1616 0.828738 51.2141 0.77349C51.3191 0.607744 51.3717 0.552495 51.4767 0.552495C51.5818 0.497247 51.6343 0.497246 51.7394 0.497246C51.8444 0.497246 51.8969 0.497247 52.002 0.552495C52.1071 0.607744 52.1596 0.662992 52.2121 0.718241C52.2646 0.77349 52.3172 0.883987 52.3697 0.939235C52.4222 1.04973 52.4222 1.10498 52.4222 1.21548C52.3697 1.32598 52.3697 1.43647 52.3172 1.54697Z" fill="white"/>
<path d="M51.8444 1.32598C51.8969 1.32598 51.9494 1.27074 52.0019 1.27074C52.0545 1.21549 52.0545 1.16024 52.0545 1.04974C52.0545 0.939244 52.0019 0.883996 51.9494 0.828747C51.8969 0.773499 51.7918 0.773499 51.6868 0.773499H51.3191V1.76797H51.4767V1.32598H51.6343L51.8969 1.76797H52.0545L51.8444 1.32598ZM51.7393 1.16024H51.5817V0.883996H51.7918H51.8444H51.8969C51.8969 0.883996 51.9494 0.883996 51.9494 0.939244V0.994493C51.9494 1.04974 51.9494 1.04974 51.9494 1.10499L51.8969 1.16024H51.8444C51.7918 1.16024 51.7393 1.16024 51.7393 1.16024Z" fill="white"/>
</g>
<defs>
<clipPath id="clip0_2_7">
<rect width="53" height="10" fill="white"/>
</clipPath>
</defs>
</svg>
